<?xml version="1.0" encoding="UTF-8" standalone="no"?>
<!DOCTYPE svg PUBLIC "-//W3C//DTD SVG 1.1//EN"
 "http://www.w3.org/Graphics/SVG/1.1/DTD/svg11.dtd">
<!-- Generated by graphviz version 2.50.0 (0)
 -->
<!-- Pages: 1 -->
<svg width="319pt" height="188pt"
 viewBox="0.00 0.00 319.00 188.00" xmlns="http://www.w3.org/2000/svg" xmlns:xlink="http://www.w3.org/1999/xlink">
<g id="graph0" class="graph" transform="scale(1 1) rotate(0) translate(4 184)">
<polygon fill="white" stroke="transparent" points="-4,4 -4,-184 315,-184 315,4 -4,4"/>
<!-- U -->
<g id="node1" class="node">
<title>U</title>
<ellipse fill="none" stroke="black" cx="40.45" cy="-162" rx="27" ry="18"/>
<text text-anchor="middle" x="40.45" y="-158.3" font-family="Times,serif" font-size="14.00">U</text>
</g>
<!-- conversion -->
<g id="node2" class="node">
<title>conversion</title>
<ellipse fill="none" stroke="black" cx="79.45" cy="-18" rx="49.29" ry="18"/>
<text text-anchor="middle" x="79.45" y="-14.3" font-family="Times,serif" font-size="14.00">conversion</text>
</g>
<!-- U&#45;&gt;conversion -->
<g id="edge1" class="edge">
<title>U&#45;&gt;conversion</title>
<path fill="none" stroke="black" d="M26.85,-146.45C11.81,-128.52 -8.65,-97.31 4.45,-72 12.09,-57.25 25.93,-45.73 39.67,-37.25"/>
<polygon fill="black" stroke="black" points="41.68,-40.13 48.61,-32.11 38.19,-34.06 41.68,-40.13"/>
</g>
<!-- age -->
<g id="node3" class="node">
<title>age</title>
<ellipse fill="none" stroke="black" cx="40.45" cy="-90" rx="27" ry="18"/>
<text text-anchor="middle" x="40.45" y="-86.3" font-family="Times,serif" font-size="14.00">age</text>
</g>
<!-- U&#45;&gt;age -->
<g id="edge2" class="edge">
<title>U&#45;&gt;age</title>
<path fill="none" stroke="black" d="M40.45,-143.7C40.45,-135.98 40.45,-126.71 40.45,-118.11"/>
<polygon fill="black" stroke="black" points="43.95,-118.1 40.45,-108.1 36.95,-118.1 43.95,-118.1"/>
</g>
<!-- gender -->
<g id="node4" class="node">
<title>gender</title>
<ellipse fill="none" stroke="black" cx="119.45" cy="-90" rx="34.39" ry="18"/>
<text text-anchor="middle" x="119.45" y="-86.3" font-family="Times,serif" font-size="14.00">gender</text>
</g>
<!-- U&#45;&gt;gender -->
<g id="edge3" class="edge">
<title>U&#45;&gt;gender</title>
<path fill="none" stroke="black" d="M56.06,-147.17C67.23,-137.27 82.49,-123.75 95.24,-112.46"/>
<polygon fill="black" stroke="black" points="97.62,-115.02 102.79,-105.77 92.98,-109.78 97.62,-115.02"/>
</g>
<!-- age&#45;&gt;conversion -->
<g id="edge6" class="edge">
<title>age&#45;&gt;conversion</title>
<path fill="none" stroke="black" d="M49.5,-72.76C54.09,-64.53 59.78,-54.32 64.96,-45.02"/>
<polygon fill="black" stroke="black" points="68.1,-46.56 69.91,-36.12 61.99,-43.16 68.1,-46.56"/>
</g>
<!-- gender&#45;&gt;conversion -->
<g id="edge7" class="edge">
<title>gender&#45;&gt;conversion</title>
<path fill="none" stroke="black" d="M109.98,-72.41C105.26,-64.16 99.46,-54.01 94.18,-44.78"/>
<polygon fill="black" stroke="black" points="97.14,-42.9 89.14,-35.96 91.07,-46.38 97.14,-42.9"/>
</g>
<!-- rnd -->
<g id="node5" class="node">
<title>rnd</title>
<ellipse fill="none" stroke="black" cx="241.45" cy="-162" rx="27" ry="18"/>
<text text-anchor="middle" x="241.45" y="-158.3" font-family="Times,serif" font-size="14.00">rnd</text>
</g>
<!-- cross_sell_email -->
<g id="node6" class="node">
<title>cross_sell_email</title>
<ellipse fill="none" stroke="black" cx="241.45" cy="-90" rx="69.59" ry="18"/>
<text text-anchor="middle" x="241.45" y="-86.3" font-family="Times,serif" font-size="14.00">cross_sell_email</text>
</g>
<!-- rnd&#45;&gt;cross_sell_email -->
<g id="edge4" class="edge">
<title>rnd&#45;&gt;cross_sell_email</title>
<path fill="none" stroke="black" d="M241.45,-143.7C241.45,-135.98 241.45,-126.71 241.45,-118.11"/>
<polygon fill="black" stroke="black" points="244.95,-118.1 241.45,-108.1 237.95,-118.1 244.95,-118.1"/>
</g>
<!-- cross_sell_email&#45;&gt;conversion -->
<g id="edge5" class="edge">
<title>cross_sell_email&#45;&gt;conversion</title>
<path fill="none" stroke="black" d="M207.1,-74.15C181.46,-63.07 146.35,-47.91 119.45,-36.28"/>
<polygon fill="black" stroke="black" points="120.51,-32.93 109.94,-32.17 117.73,-39.35 120.51,-32.93"/>
</g>
</g>
</svg>
