<?xml version="1.0" encoding="UTF-8" standalone="no"?>
<!DOCTYPE svg PUBLIC "-//W3C//DTD SVG 1.1//EN"
 "http://www.w3.org/Graphics/SVG/1.1/DTD/svg11.dtd">
<!-- Generated by graphviz version 2.50.0 (0)
 -->
<!-- Pages: 1 -->
<svg width="422pt" height="266pt"
 viewBox="0.00 0.00 422.00 266.27" xmlns="http://www.w3.org/2000/svg" xmlns:xlink="http://www.w3.org/1999/xlink">
<g id="graph0" class="graph" transform="scale(1 1) rotate(0) translate(4 262.27)">
<polygon fill="white" stroke="transparent" points="-4,4 -4,-262.27 418,-262.27 418,4 -4,4"/>
<!-- X1 -->
<g id="node1" class="node">
<title>X1</title>
<ellipse fill="none" stroke="black" cx="27" cy="-173.27" rx="27" ry="18"/>
<text text-anchor="middle" x="27" y="-169.57" font-family="Times,serif" font-size="14.00">X1</text>
</g>
<!-- U -->
<g id="node2" class="node">
<title>U</title>
<ellipse fill="none" stroke="black" cx="117" cy="-173.27" rx="27" ry="18"/>
<text text-anchor="middle" x="117" y="-169.57" font-family="Times,serif" font-size="14.00">U</text>
</g>
<!-- X1&#45;&gt;U -->
<g id="edge1" class="edge">
<title>X1&#45;&gt;U</title>
<path fill="none" stroke="black" d="M54.4,-173.27C62.39,-173.27 71.31,-173.27 79.82,-173.27"/>
<polygon fill="black" stroke="black" points="79.92,-176.77 89.92,-173.27 79.92,-169.77 79.92,-176.77"/>
</g>
<!-- X2 -->
<g id="node3" class="node">
<title>X2</title>
<ellipse fill="none" stroke="black" cx="207" cy="-240.27" rx="27" ry="18"/>
<text text-anchor="middle" x="207" y="-236.57" font-family="Times,serif" font-size="14.00">X2</text>
</g>
<!-- U&#45;&gt;X2 -->
<g id="edge2" class="edge">
<title>U&#45;&gt;X2</title>
<path fill="none" stroke="black" d="M135.39,-186.51C148.28,-196.33 166.07,-209.87 180.56,-220.9"/>
<polygon fill="black" stroke="black" points="178.57,-223.79 188.65,-227.06 182.81,-218.22 178.57,-223.79"/>
</g>
<!-- S -->
<g id="node5" class="node">
<title>S</title>
<ellipse fill="lightgrey" stroke="lightgrey" cx="387" cy="-94.27" rx="27" ry="18"/>
<text text-anchor="middle" x="387" y="-90.57" font-family="Times,serif" font-size="14.00">S</text>
</g>
<!-- U&#45;&gt;S -->
<g id="edge5" class="edge">
<title>U&#45;&gt;S</title>
<path fill="none" stroke="black" stroke-dasharray="5,2" d="M142.08,-180.16C182.2,-190.25 264.19,-204.81 324,-175.27 346.82,-164 363.56,-139.86 373.85,-120.84"/>
<polygon fill="black" stroke="black" points="377.07,-122.23 378.51,-111.73 370.84,-119.04 377.07,-122.23"/>
</g>
<!-- Y -->
<g id="node6" class="node">
<title>Y</title>
<ellipse fill="none" stroke="black" cx="207" cy="-94.27" rx="27" ry="18"/>
<text text-anchor="middle" x="207" y="-90.57" font-family="Times,serif" font-size="14.00">Y</text>
</g>
<!-- U&#45;&gt;Y -->
<g id="edge4" class="edge">
<title>U&#45;&gt;Y</title>
<path fill="none" stroke="black" stroke-dasharray="5,2" d="M134.14,-158.78C147.75,-146.57 167.39,-128.93 182.7,-115.19"/>
<polygon fill="black" stroke="black" points="185.15,-117.69 190.26,-108.4 180.48,-112.48 185.15,-117.69"/>
</g>
<!-- X3 -->
<g id="node7" class="node">
<title>X3</title>
<ellipse fill="none" stroke="black" cx="297" cy="-148.27" rx="27" ry="18"/>
<text text-anchor="middle" x="297" y="-144.57" font-family="Times,serif" font-size="14.00">X3</text>
</g>
<!-- U&#45;&gt;X3 -->
<g id="edge6" class="edge">
<title>U&#45;&gt;X3</title>
<path fill="none" stroke="black" d="M143.5,-169.69C174.08,-165.39 225.53,-158.17 260.11,-153.31"/>
<polygon fill="black" stroke="black" points="260.84,-156.74 270.26,-151.89 259.87,-149.81 260.84,-156.74"/>
</g>
<!-- X5 -->
<g id="node4" class="node">
<title>X5</title>
<ellipse fill="none" stroke="black" cx="297" cy="-40.27" rx="27" ry="18"/>
<text text-anchor="middle" x="297" y="-36.57" font-family="Times,serif" font-size="14.00">X5</text>
</g>
<!-- X5&#45;&gt;S -->
<g id="edge3" class="edge">
<title>X5&#45;&gt;S</title>
<path fill="none" stroke="black" d="M317.53,-52.26C329.38,-59.53 344.7,-68.93 357.84,-76.99"/>
<polygon fill="black" stroke="black" points="356.17,-80.07 366.52,-82.32 359.83,-74.11 356.17,-80.07"/>
</g>
<!-- X4 -->
<g id="node8" class="node">
<title>X4</title>
<ellipse fill="none" stroke="black" cx="297" cy="-94.27" rx="27" ry="18"/>
<text text-anchor="middle" x="297" y="-90.57" font-family="Times,serif" font-size="14.00">X4</text>
</g>
<!-- Y&#45;&gt;X4 -->
<g id="edge8" class="edge">
<title>Y&#45;&gt;X4</title>
<path fill="none" stroke="black" d="M234.4,-94.27C242.39,-94.27 251.31,-94.27 259.82,-94.27"/>
<polygon fill="black" stroke="black" points="259.92,-97.77 269.92,-94.27 259.92,-90.77 259.92,-97.77"/>
</g>
<!-- X3&#45;&gt;S -->
<g id="edge7" class="edge">
<title>X3&#45;&gt;S</title>
<path fill="none" stroke="black" d="M317.53,-136.29C329.38,-129.02 344.7,-119.62 357.84,-111.55"/>
<polygon fill="black" stroke="black" points="359.83,-114.44 366.52,-106.22 356.17,-108.47 359.83,-114.44"/>
</g>
<!-- X4&#45;&gt;S -->
<g id="edge9" class="edge">
<title>X4&#45;&gt;S</title>
<path fill="none" stroke="black" d="M324.4,-94.27C332.39,-94.27 341.31,-94.27 349.82,-94.27"/>
<polygon fill="black" stroke="black" points="349.92,-97.77 359.92,-94.27 349.92,-90.77 349.92,-97.77"/>
</g>
<!-- T -->
<g id="node9" class="node">
<title>T</title>
<ellipse fill="none" stroke="black" cx="117" cy="-40.27" rx="27" ry="18"/>
<text text-anchor="middle" x="117" y="-36.57" font-family="Times,serif" font-size="14.00">T</text>
</g>
<!-- T&#45;&gt;X5 -->
<g id="edge10" class="edge">
<title>T&#45;&gt;X5</title>
<path fill="none" stroke="black" d="M144.26,-40.27C174.85,-40.27 225.55,-40.27 259.84,-40.27"/>
<polygon fill="black" stroke="black" points="259.92,-43.77 269.92,-40.27 259.92,-36.77 259.92,-43.77"/>
</g>
<!-- T&#45;&gt;S -->
<g id="edge12" class="edge">
<title>T&#45;&gt;S</title>
<path fill="none" stroke="black" stroke-dasharray="5,2" d="M139.46,-29.9C178.4,-12.65 262.39,17.16 324,-13.27 346.82,-24.54 363.56,-48.69 373.85,-67.7"/>
<polygon fill="black" stroke="black" points="370.84,-69.5 378.51,-76.81 377.07,-66.31 370.84,-69.5"/>
</g>
<!-- T&#45;&gt;Y -->
<g id="edge11" class="edge">
<title>T&#45;&gt;Y</title>
<path fill="none" stroke="black" d="M137.53,-52.26C149.38,-59.53 164.7,-68.93 177.84,-76.99"/>
<polygon fill="black" stroke="black" points="176.17,-80.07 186.52,-82.32 179.83,-74.11 176.17,-80.07"/>
</g>
</g>
</svg>
