<?xml version="1.0" encoding="UTF-8" standalone="no"?>
<!DOCTYPE svg PUBLIC "-//W3C//DTD SVG 1.1//EN"
 "http://www.w3.org/Graphics/SVG/1.1/DTD/svg11.dtd">
<!-- Generated by graphviz version 2.50.0 (0)
 -->
<!-- Pages: 1 -->
<svg width="553pt" height="144pt"
 viewBox="0.00 0.00 553.47 144.00" xmlns="http://www.w3.org/2000/svg" xmlns:xlink="http://www.w3.org/1999/xlink">
<g id="graph0" class="graph" transform="scale(1 1) rotate(0) translate(4 140)">
<polygon fill="white" stroke="transparent" points="-4,4 -4,-140 549.47,-140 549.47,4 -4,4"/>
<!-- U1 -->
<g id="node1" class="node">
<title>U1</title>
<ellipse fill="none" stroke="black" cx="317.73" cy="-118" rx="27" ry="18"/>
<text text-anchor="middle" x="317.73" y="-114.3" font-family="Times,serif" font-size="14.00">U1</text>
</g>
<!-- profits_next_6m -->
<g id="node2" class="node">
<title>profits_next_6m</title>
<ellipse fill="none" stroke="black" cx="475.92" cy="-64" rx="69.59" ry="18"/>
<text text-anchor="middle" x="475.92" y="-60.3" font-family="Times,serif" font-size="14.00">profits_next_6m</text>
</g>
<!-- U1&#45;&gt;profits_next_6m -->
<g id="edge1" class="edge">
<title>U1&#45;&gt;profits_next_6m</title>
<path fill="none" stroke="black" d="M342.12,-109.92C363.66,-102.47 396.37,-91.16 423.93,-81.63"/>
<polygon fill="black" stroke="black" points="425.13,-84.92 433.44,-78.34 422.84,-78.3 425.13,-84.92"/>
</g>
<!-- U2 -->
<g id="node3" class="node">
<title>U2</title>
<ellipse fill="none" stroke="black" cx="159.54" cy="-72" rx="27" ry="18"/>
<text text-anchor="middle" x="159.54" y="-68.3" font-family="Times,serif" font-size="14.00">U2</text>
</g>
<!-- consultancy -->
<g id="node4" class="node">
<title>consultancy</title>
<ellipse fill="none" stroke="black" cx="317.73" cy="-64" rx="52.79" ry="18"/>
<text text-anchor="middle" x="317.73" y="-60.3" font-family="Times,serif" font-size="14.00">consultancy</text>
</g>
<!-- U2&#45;&gt;consultancy -->
<g id="edge2" class="edge">
<title>U2&#45;&gt;consultancy</title>
<path fill="none" stroke="black" d="M186.69,-70.66C205.46,-69.7 231.55,-68.36 255.44,-67.14"/>
<polygon fill="black" stroke="black" points="255.71,-70.63 265.52,-66.62 255.35,-63.64 255.71,-70.63"/>
</g>
<!-- consultancy&#45;&gt;profits_next_6m -->
<g id="edge4" class="edge">
<title>consultancy&#45;&gt;profits_next_6m</title>
<path fill="none" stroke="black" d="M370.74,-64C378.91,-64 387.5,-64 396.11,-64"/>
<polygon fill="black" stroke="black" points="396.19,-67.5 406.19,-64 396.19,-60.5 396.19,-67.5"/>
</g>
<!-- U3 -->
<g id="node5" class="node">
<title>U3</title>
<ellipse fill="none" stroke="black" cx="27" cy="-18" rx="27" ry="18"/>
<text text-anchor="middle" x="27" y="-14.3" font-family="Times,serif" font-size="14.00">U3</text>
</g>
<!-- profits_prev_6m -->
<g id="node6" class="node">
<title>profits_prev_6m</title>
<ellipse fill="none" stroke="black" cx="159.54" cy="-18" rx="69.59" ry="18"/>
<text text-anchor="middle" x="159.54" y="-14.3" font-family="Times,serif" font-size="14.00">profits_prev_6m</text>
</g>
<!-- U3&#45;&gt;profits_prev_6m -->
<g id="edge3" class="edge">
<title>U3&#45;&gt;profits_prev_6m</title>
<path fill="none" stroke="black" d="M54.1,-18C61.75,-18 70.54,-18 79.7,-18"/>
<polygon fill="black" stroke="black" points="79.76,-21.5 89.76,-18 79.76,-14.5 79.76,-21.5"/>
</g>
<!-- profits_prev_6m&#45;&gt;profits_next_6m -->
<g id="edge6" class="edge">
<title>profits_prev_6m&#45;&gt;profits_next_6m</title>
<path fill="none" stroke="black" d="M228,-21.32C269.32,-24.04 323.16,-28.82 370.38,-37 386.44,-39.78 403.65,-43.79 419.38,-47.87"/>
<polygon fill="black" stroke="black" points="418.91,-51.36 429.47,-50.55 420.7,-44.6 418.91,-51.36"/>
</g>
<!-- profits_prev_6m&#45;&gt;consultancy -->
<g id="edge5" class="edge">
<title>profits_prev_6m&#45;&gt;consultancy</title>
<path fill="none" stroke="black" d="M206.14,-31.43C225.4,-37.1 247.86,-43.72 267.5,-49.5"/>
<polygon fill="black" stroke="black" points="266.59,-52.88 277.18,-52.35 268.57,-46.17 266.59,-52.88"/>
</g>
</g>
</svg>
